# Blender v2.79 (sub 0) OBJ File: 'flipperright.blend'
# www.blender.org
v -0.117319 0.588068 -0.210021
v 0.224043 0.588068 -0.062319
v -0.063267 0.588068 -0.234580
v -0.008551 0.588068 -0.246533
v 0.044726 0.588068 -0.245421
v 0.094517 0.588068 -0.231285
v 0.138908 0.588068 -0.204670
v 0.176193 0.588068 -0.166598
v 0.204939 0.588068 -0.118532
v 0.224043 -0.396951 -0.062319
v -0.117319 -0.396951 -0.210021
v 0.204939 -0.396951 -0.118532
v 0.176193 -0.396951 -0.166598
v 0.138908 -0.396951 -0.204670
v 0.094517 -0.396951 -0.231285
v 0.044726 -0.396951 -0.245421
v -0.008551 -0.396951 -0.246533
v -0.063267 -0.396951 -0.234580
v -0.194375 0.588068 0.192869
v -0.117319 0.588068 -0.210021
v -0.224460 0.588068 0.140297
v -0.243531 0.588068 0.084058
v -0.250854 0.588068 0.026313
v -0.246148 0.588068 -0.030718
v -0.229594 0.588068 -0.084844
v -0.201828 0.588068 -0.133985
v -0.163917 0.588068 -0.176252
v -0.117319 -0.396951 -0.210021
v -0.194375 -0.396951 0.192869
v -0.163917 -0.396951 -0.176252
v -0.201828 -0.396951 -0.133985
v -0.229594 -0.396951 -0.084844
v -0.246148 -0.396951 -0.030718
v -0.250854 -0.396951 0.026313
v -0.243531 -0.396951 0.084058
v -0.224460 -0.396951 0.140297
v 0.452379 0.588068 0.909234
v 0.344226 0.588068 0.957812
v 0.466012 0.588068 1.005967
v 0.450245 0.588068 1.049167
v 0.407480 0.588068 1.032258
v 0.344226 -0.396951 0.957812
v 0.452379 -0.396951 0.909234
v 0.407480 -0.396951 1.032258
v 0.450245 -0.396951 1.049167
v 0.466012 -0.396951 1.005967
vt 0.000000 0.000000
vt 0.000000 1.000000
vt 1.000000 1.000000
vt 0.300800 0.041394
vt 0.240208 0.927209
vt 0.091515 0.211660
vt 1.000000 0.000000
vt 0.000000 0.000000
vt 0.000000 1.000000
vt 1.000000 0.000000
vt 0.000000 0.000000
vt 0.000000 1.000000
vt 1.000000 0.000000
vt 0.000000 0.000000
vt 0.000000 1.000000
vt 1.000000 0.000000
vt 0.000000 0.000000
vt 0.000000 1.000000
vt 1.000000 0.000000
vt 0.000000 0.000000
vt 0.000000 1.000000
vt 1.000000 0.000000
vt 0.000000 0.000000
vt 0.000000 1.000000
vt 1.000000 0.000000
vt 0.000000 0.000000
vt 0.000000 1.000000
vt 1.000000 0.000000
vt 0.000000 0.000000
vt 0.000000 1.000000
vt 1.000000 0.000000
vt 0.000000 0.000000
vt 0.000000 1.000000
vt 1.000000 0.000000
vt 0.000000 0.000000
vt 0.000000 1.000000
vt 1.000000 0.000000
vt 0.000000 0.000000
vt 0.000000 1.000000
vt 1.000000 0.000000
vt 0.000000 0.000000
vt 0.000000 1.000000
vt 1.000000 0.000000
vt 0.000000 0.000000
vt 0.000000 1.000000
vt 1.000000 0.000000
vt 0.000000 0.000000
vt 0.000000 1.000000
vt 1.000000 0.000000
vt 0.000000 0.000000
vt 0.000000 1.000000
vt 1.000000 0.000000
vt 0.000000 0.000000
vt 0.000000 1.000000
vt 1.000000 0.000000
vt 0.000000 0.000000
vt 0.000000 1.000000
vt 0.365101 0.981459
vt 0.184456 0.112144
vt 0.634898 0.981459
vt 1.000000 0.000000
vt 0.000000 0.000000
vt 0.000000 1.000000
vt 1.000000 0.000000
vt 0.000000 0.000000
vt 0.000000 1.000000
vt 1.000000 0.000000
vt 0.000000 0.000000
vt 0.000000 1.000000
vt 1.000000 0.000000
vt 0.000000 0.000000
vt 0.000000 1.000000
vt 1.000000 0.000000
vt 0.000000 0.000000
vt 0.000000 1.000000
vt 1.000000 0.000000
vt 0.365101 0.981459
vt 0.989542 0.601728
vt 0.500000 1.000000
vt 0.943943 0.730033
vt 0.634898 0.981459
vt 0.865418 0.841277
vt 0.759792 0.927210
vt 0.998834 0.465879
vt 0.971130 0.332560
vt 0.908485 0.211660
vt 0.815544 0.112144
vt 0.699201 0.041394
vt 0.568084 0.004657
vt 0.431917 0.004657
vt 0.184456 0.112144
vt 0.056057 0.730032
vt 0.028870 0.332560
vt 0.134582 0.841276
vt 0.001166 0.465879
vt 0.010458 0.601728
vt 1.000000 1.000000
vt 1.000000 1.000000
vt 1.000000 1.000000
vt 1.000000 1.000000
vt 1.000000 1.000000
vt 1.000000 1.000000
vt 1.000000 1.000000
vt 1.000000 1.000000
vt 1.000000 1.000000
vt 1.000000 1.000000
vt 1.000000 1.000000
vt 1.000000 1.000000
vt 1.000000 1.000000
vt 1.000000 1.000000
vt 1.000000 1.000000
vt 1.000000 1.000000
vt 1.000000 1.000000
vt 0.500000 1.000000
vt 0.759792 0.927210
vt 0.865418 0.841277
vt 0.943943 0.730033
vt 0.989542 0.601728
vt 0.998834 0.465879
vt 0.971130 0.332560
vt 0.908485 0.211660
vt 0.300800 0.041394
vt 0.815544 0.112144
vt 0.431917 0.004657
vt 0.699201 0.041394
vt 0.568084 0.004657
vt 0.091515 0.211660
vt 0.240208 0.927209
vt 0.028870 0.332560
vt 0.134582 0.841276
vt 0.001166 0.465879
vt 0.056057 0.730032
vt 0.010458 0.601728
vt 1.000000 1.000000
vt 1.000000 1.000000
vt 1.000000 1.000000
vt 1.000000 1.000000
vt 1.000000 1.000000
vn 0.0000 0.0000 1.0000
vn 0.0000 1.0000 0.0000
vn 0.9468 -0.0000 -0.3218
vn 0.8582 0.0000 -0.5133
vn 0.7145 -0.0000 -0.6997
vn 0.5142 -0.0000 -0.8577
vn 0.2731 0.0000 -0.9620
vn 0.0209 0.0000 -0.9998
vn -0.2134 0.0000 -0.9770
vn -0.4137 -0.0000 -0.9104
vn 0.9735 -0.0000 -0.2288
vn -0.5868 0.0000 -0.8097
vn -0.7444 -0.0000 -0.6677
vn -0.8706 0.0000 -0.4919
vn -0.9563 0.0000 -0.2925
vn -0.9966 0.0000 -0.0822
vn -0.9921 0.0000 0.1258
vn -0.9470 0.0000 0.3211
vn -0.8679 -0.0000 0.4967
vn 0.0000 -1.0000 0.0000
vn 0.9902 -0.0000 -0.1396
vn 0.9394 0.0000 0.3428
vn -0.3677 0.0000 0.9299
vn -0.7621 0.0000 0.6475
vn -0.8177 0.0000 0.5757
vn 0.0000 0.0000 -1.0000
s off
f 20/1/1 1/2/1 11/3/1
f 20/4/2 9/5/2 3/6/2
f 2/7/3 10/8/3 12/9/3
f 9/10/4 12/11/4 13/12/4
f 8/13/5 13/14/5 14/15/5
f 7/16/6 14/17/6 15/18/6
f 6/19/7 15/20/7 16/21/7
f 5/22/8 16/23/8 17/24/8
f 4/25/9 17/26/9 18/27/9
f 3/28/10 18/29/10 11/30/10
f 10/31/11 2/32/11 37/33/11
f 20/34/12 28/35/12 30/36/12
f 27/37/13 30/38/13 31/39/13
f 26/40/14 31/41/14 32/42/14
f 25/43/15 32/44/15 33/45/15
f 24/46/16 33/47/16 34/48/16
f 23/49/17 34/50/17 35/51/17
f 22/52/18 35/53/18 36/54/18
f 21/55/19 36/56/19 29/57/19
f 11/58/20 10/59/20 30/60/20
f 43/61/21 37/62/21 39/63/21
f 46/64/22 39/65/22 40/66/22
f 45/67/23 40/68/23 41/69/23
f 44/70/24 41/71/24 38/72/24
f 42/73/25 38/74/25 19/75/25
f 20/1/26 11/3/26 28/76/26
f 2/77/2 19/78/2 37/79/2
f 37/79/2 38/80/2 39/81/2
f 19/78/2 38/80/2 37/79/2
f 39/81/2 41/82/2 40/83/2
f 41/82/2 39/81/2 38/80/2
f 19/78/2 2/77/2 21/84/2
f 21/84/2 2/77/2 22/85/2
f 22/85/2 2/77/2 23/86/2
f 23/86/2 2/77/2 24/87/2
f 24/87/2 2/77/2 25/88/2
f 25/88/2 2/77/2 26/89/2
f 26/89/2 2/77/2 27/90/2
f 27/90/2 2/77/2 20/4/2
f 20/4/1 3/6/1 1/91/1
f 9/5/2 20/4/2 2/77/2
f 7/92/2 4/93/2 8/94/2
f 8/94/2 3/6/2 9/5/2
f 5/95/2 7/92/2 6/96/2
f 3/6/2 8/94/2 4/93/2
f 4/93/2 7/92/2 5/95/2
f 2/7/3 12/9/3 9/97/3
f 9/10/4 13/12/4 8/98/4
f 8/13/5 14/15/5 7/99/5
f 7/16/6 15/18/6 6/100/6
f 6/19/7 16/21/7 5/101/7
f 5/22/8 17/24/8 4/102/8
f 4/25/9 18/27/9 3/103/9
f 3/28/10 11/30/10 1/104/10
f 10/31/11 37/33/11 43/105/11
f 20/34/12 30/36/12 27/106/12
f 27/37/13 31/39/13 26/107/13
f 26/40/14 32/42/14 25/108/14
f 25/43/15 33/45/15 24/109/15
f 24/46/16 34/48/16 23/110/16
f 23/49/17 35/51/17 22/111/17
f 22/52/18 36/54/18 21/112/18
f 21/55/19 29/57/19 19/113/19
f 11/58/20 30/60/20 28/114/20
f 30/60/20 10/59/20 31/115/20
f 31/115/20 10/59/20 32/116/20
f 32/116/20 10/59/20 33/117/20
f 33/117/20 10/59/20 34/118/20
f 34/118/20 10/59/20 35/119/20
f 35/119/20 10/59/20 36/120/20
f 36/120/20 10/59/20 29/121/20
f 29/121/20 43/122/20 42/123/20
f 42/123/20 46/124/20 44/125/20
f 44/125/20 46/124/20 45/126/20
f 46/124/20 42/123/20 43/122/20
f 43/122/20 29/121/20 10/59/20
f 10/59/20 11/58/20 12/127/20
f 12/127/20 18/128/20 13/129/20
f 13/129/20 17/130/20 14/131/20
f 18/128/20 17/130/20 13/129/20
f 14/131/20 16/132/20 15/133/20
f 16/132/20 14/131/20 17/130/20
f 18/128/20 12/127/20 11/58/20
f 43/61/21 39/63/21 46/134/21
f 46/64/22 40/66/22 45/135/22
f 45/67/23 41/69/23 44/136/23
f 44/70/24 38/72/24 42/137/24
f 42/73/25 19/75/25 29/138/25
