# Blender v2.79 (sub 0) OBJ File: 'flipperleft.blend'
# www.blender.org
v -0.121432 -0.380347 0.333067
v -0.235082 -0.388939 -0.157908
v -0.177458 -0.380355 0.307411
v -0.223934 -0.380727 0.267417
v -0.259074 -0.381449 0.214622
v -0.281527 -0.382493 0.151057
v -0.290430 -0.383820 0.079163
v -0.285442 -0.385377 0.001703
v -0.266753 -0.387106 -0.078346
v -0.226410 0.596095 -0.177154
v -0.112759 0.604688 0.313821
v -0.258080 0.597929 -0.097593
v -0.276769 0.599657 -0.017544
v -0.281757 0.601215 0.059916
v -0.272854 0.602541 0.131811
v -0.250401 0.603585 0.195376
v -0.215262 0.604308 0.248170
v -0.168785 0.604680 0.288164
v 0.250234 -0.390713 -0.029989
v -0.121432 -0.380347 0.333067
v 0.228876 -0.388840 0.056252
v 0.197162 -0.387006 0.135810
v 0.156311 -0.385282 0.205630
v 0.107893 -0.383734 0.263027
v 0.053769 -0.382422 0.305797
v -0.003982 -0.381396 0.332295
v -0.063140 -0.380695 0.341503
v -0.112759 0.604688 0.313821
v 0.258907 0.594322 -0.049235
v -0.054467 0.604339 0.322257
v 0.004691 0.603639 0.313048
v 0.062442 0.602612 0.286550
v 0.116566 0.601300 0.243781
v 0.164984 0.599752 0.186383
v 0.205835 0.598029 0.116564
v 0.237549 0.596195 0.037005
v 0.381153 -0.419306 -1.434411
v 0.492810 -0.419274 -1.382462
v 0.448663 -0.422211 -1.552694
v 0.493589 -0.423226 -1.584357
v 0.509091 -0.422194 -1.524579
v 0.501483 0.565760 -1.401708
v 0.389826 0.565728 -1.453657
v 0.517764 0.562840 -1.543826
v 0.502262 0.561809 -1.603603
v 0.457336 0.562823 -1.571940
vt 0.000000 0.000000
vt 1.000000 1.000000
vt 0.000000 1.000000
vt 0.300800 0.041394
vt 0.091515 0.211660
vt 0.240208 0.927209
vt 1.000000 0.000000
vt 0.000000 1.000000
vt 0.000000 0.000000
vt 1.000000 0.000000
vt 0.000000 1.000000
vt 0.000000 0.000000
vt 1.000000 0.000000
vt 0.000000 1.000000
vt 0.000000 0.000000
vt 1.000000 0.000000
vt 0.000000 1.000000
vt 0.000000 0.000000
vt 1.000000 0.000000
vt 0.000000 1.000000
vt 0.000000 0.000000
vt 1.000000 0.000000
vt 0.000000 1.000000
vt 0.000000 0.000000
vt 1.000000 0.000000
vt 0.000000 1.000000
vt 0.000000 0.000000
vt 1.000000 0.000000
vt 0.000000 1.000000
vt 0.000000 0.000000
vt 1.000000 0.000000
vt 0.000000 1.000000
vt 0.000000 0.000000
vt 1.000000 0.000000
vt 0.000000 1.000000
vt 0.000000 0.000000
vt 1.000000 0.000000
vt 0.000000 1.000000
vt 0.000000 0.000000
vt 1.000000 0.000000
vt 0.000000 1.000000
vt 0.000000 0.000000
vt 1.000000 0.000000
vt 0.000000 1.000000
vt 0.000000 0.000000
vt 1.000000 0.000000
vt 0.000000 1.000000
vt 0.000000 0.000000
vt 1.000000 0.000000
vt 0.000000 1.000000
vt 0.000000 0.000000
vt 1.000000 0.000000
vt 0.000000 1.000000
vt 0.000000 0.000000
vt 1.000000 0.000000
vt 0.000000 1.000000
vt 0.000000 0.000000
vt 0.365101 0.981459
vt 0.634898 0.981459
vt 0.184456 0.112144
vt 1.000000 0.000000
vt 0.000000 1.000000
vt 0.000000 0.000000
vt 1.000000 0.000000
vt 0.000000 1.000000
vt 0.000000 0.000000
vt 1.000000 0.000000
vt 0.000000 1.000000
vt 0.000000 0.000000
vt 1.000000 0.000000
vt 0.000000 1.000000
vt 0.000000 0.000000
vt 1.000000 0.000000
vt 0.000000 1.000000
vt 0.000000 0.000000
vt 1.000000 0.000000
vt 0.365101 0.981459
vt 0.500000 1.000000
vt 0.989542 0.601728
vt 0.634898 0.981459
vt 0.943943 0.730033
vt 0.759792 0.927210
vt 0.865418 0.841277
vt 0.998834 0.465879
vt 0.971130 0.332560
vt 0.908485 0.211660
vt 0.815544 0.112144
vt 0.699201 0.041394
vt 0.568084 0.004657
vt 0.431917 0.004657
vt 0.184456 0.112144
vt 0.056057 0.730032
vt 0.134582 0.841276
vt 0.028870 0.332560
vt 0.001166 0.465879
vt 0.010458 0.601728
vt 1.000000 1.000000
vt 1.000000 1.000000
vt 1.000000 1.000000
vt 1.000000 1.000000
vt 1.000000 1.000000
vt 1.000000 1.000000
vt 1.000000 1.000000
vt 1.000000 1.000000
vt 1.000000 1.000000
vt 1.000000 1.000000
vt 1.000000 1.000000
vt 1.000000 1.000000
vt 1.000000 1.000000
vt 1.000000 1.000000
vt 1.000000 1.000000
vt 1.000000 1.000000
vt 1.000000 1.000000
vt 0.500000 1.000000
vt 0.759792 0.927210
vt 0.865418 0.841277
vt 0.943943 0.730033
vt 0.989542 0.601728
vt 0.998834 0.465879
vt 0.971130 0.332560
vt 0.908485 0.211660
vt 0.815544 0.112144
vt 0.300800 0.041394
vt 0.699201 0.041394
vt 0.431917 0.004657
vt 0.568084 0.004657
vt 0.091515 0.211660
vt 0.028870 0.332560
vt 0.240208 0.927209
vt 0.001166 0.465879
vt 0.134582 0.841276
vt 0.010458 0.601728
vt 0.056057 0.730032
vt 1.000000 1.000000
vt 1.000000 1.000000
vt 1.000000 1.000000
vt 1.000000 1.000000
vt 1.000000 1.000000
vn 0.0000 0.0000 1.0000
vn -0.0088 -0.9998 0.0195
vn -0.9291 0.0010 -0.3699
vn -0.9738 0.0041 -0.2274
vn -0.9979 0.0075 -0.0644
vn -0.9924 0.0111 0.1227
vn -0.9429 0.0148 0.3328
vn -0.8324 0.0182 0.5538
vn -0.6522 0.0205 0.7577
vn -0.4163 0.0214 0.9090
vn -0.9006 -0.0006 -0.4347
vn -0.1431 0.0206 0.9895
vn 0.1540 0.0179 0.9879
vn 0.4172 0.0141 0.9087
vn 0.6201 0.0099 0.7844
vn 0.7644 0.0059 0.6447
vn 0.8631 0.0023 0.5050
vn 0.9289 -0.0009 0.3703
vn 0.9706 -0.0038 0.2405
vn 0.0088 0.9998 -0.0195
vn -0.8685 -0.0020 -0.4957
vn -0.5762 -0.0109 -0.8172
vn 0.9679 -0.0134 -0.2508
vn 0.9935 -0.0065 0.1139
vn 0.9843 -0.0052 0.1766
vn 0.0000 0.0159 0.9999
vn 0.0000 -1.0000 0.0000
s off
f 20/1/1 11/2/1 1/3/1
f 20/4/2 3/5/2 9/6/2
f 2/7/3 12/8/3 10/9/3
f 9/10/4 13/11/4 12/12/4
f 8/13/5 14/14/5 13/15/5
f 7/16/6 15/17/6 14/18/6
f 6/19/7 16/20/7 15/21/7
f 5/22/8 17/23/8 16/24/8
f 4/25/9 18/26/9 17/27/9
f 3/28/10 11/29/10 18/30/10
f 10/31/11 37/32/11 2/33/11
f 20/34/12 30/35/12 28/36/12
f 27/37/13 31/38/13 30/39/13
f 26/40/14 32/41/14 31/42/14
f 25/43/15 33/44/15 32/45/15
f 24/46/16 34/47/16 33/48/16
f 23/49/17 35/50/17 34/51/17
f 22/52/18 36/53/18 35/54/18
f 21/55/19 29/56/19 36/57/19
f 11/58/20 30/59/20 10/60/20
f 43/61/21 39/62/21 37/63/21
f 46/64/22 40/65/22 39/66/22
f 45/67/23 41/68/23 40/69/23
f 44/70/24 38/71/24 41/72/24
f 42/73/25 19/74/25 38/75/25
f 20/1/26 28/76/26 11/2/26
f 2/77/2 37/78/2 19/79/2
f 37/78/2 39/80/2 38/81/2
f 19/79/2 37/78/2 38/81/2
f 39/80/2 40/82/2 41/83/2
f 41/83/2 38/81/2 39/80/2
f 19/79/2 21/84/2 2/77/2
f 21/84/2 22/85/2 2/77/2
f 22/85/2 23/86/2 2/77/2
f 23/86/2 24/87/2 2/77/2
f 24/87/2 25/88/2 2/77/2
f 25/88/2 26/89/2 2/77/2
f 26/89/2 27/90/2 2/77/2
f 27/90/2 20/4/2 2/77/2
f 20/4/1 1/91/1 3/5/1
f 9/6/2 2/77/2 20/4/2
f 7/92/2 8/93/2 4/94/2
f 8/93/2 9/6/2 3/5/2
f 5/95/2 6/96/2 7/92/2
f 3/5/2 4/94/2 8/93/2
f 4/94/2 5/95/2 7/92/2
f 2/7/3 9/97/3 12/8/3
f 9/10/4 8/98/4 13/11/4
f 8/13/5 7/99/5 14/14/5
f 7/16/6 6/100/6 15/17/6
f 6/19/7 5/101/7 16/20/7
f 5/22/8 4/102/8 17/23/8
f 4/25/9 3/103/9 18/26/9
f 3/28/10 1/104/10 11/29/10
f 10/31/11 43/105/11 37/32/11
f 20/34/12 27/106/12 30/35/12
f 27/37/13 26/107/13 31/38/13
f 26/40/14 25/108/14 32/41/14
f 25/43/15 24/109/15 33/44/15
f 24/46/16 23/110/16 34/47/16
f 23/49/17 22/111/17 35/50/17
f 22/52/18 21/112/18 36/53/18
f 21/55/19 19/113/19 29/56/19
f 11/58/27 28/114/27 30/59/27
f 30/59/20 31/115/20 10/60/20
f 31/115/20 32/116/20 10/60/20
f 32/116/20 33/117/20 10/60/20
f 33/117/20 34/118/20 10/60/20
f 34/118/20 35/119/20 10/60/20
f 35/119/20 36/120/20 10/60/20
f 36/120/20 29/121/20 10/60/20
f 29/121/20 42/122/20 43/123/20
f 42/122/20 44/124/20 46/125/20
f 44/124/20 45/126/20 46/125/20
f 46/125/20 43/123/20 42/122/20
f 43/123/20 10/60/20 29/121/20
f 10/60/20 12/127/20 11/58/20
f 12/127/20 13/128/20 18/129/20
f 13/128/20 14/130/20 17/131/20
f 18/129/20 13/128/20 17/131/20
f 14/130/20 15/132/20 16/133/20
f 16/133/20 17/131/20 14/130/20
f 18/129/20 11/58/20 12/127/20
f 43/61/21 46/134/21 39/62/21
f 46/64/22 45/135/22 40/65/22
f 45/67/23 44/136/23 41/68/23
f 44/70/24 42/137/24 38/71/24
f 42/73/25 29/138/25 19/74/25
