# Blender v2.79 (sub 0) OBJ File: 'pinballtablev2.blend'
# www.blender.org
v -6.770972 0.895504 4.092189
v -6.770972 2.895504 4.092189
v -6.770972 0.895504 -4.093275
v -6.770972 2.895504 -4.093275
v -5.745031 0.895504 4.092189
v -5.745031 2.895504 4.092189
v -5.745031 0.895504 -4.093275
v -5.745031 2.895504 -4.093275
v 6.579184 0.570731 -3.511863
v 6.579184 0.512204 -3.506098
v 6.579184 0.455926 -3.489027
v 6.579184 0.404060 -3.461304
v 6.579184 0.358599 -3.423995
v 6.579184 0.321290 -3.378534
v 6.579184 0.293567 -3.326668
v 6.579184 0.276495 -3.270390
v 6.579184 0.270731 -3.211863
v 6.579184 0.276495 -3.153336
v 6.579184 0.293567 -3.097058
v 6.579184 0.321290 -3.045192
v 6.579184 0.358599 -2.999731
v 6.579184 0.404060 -2.962422
v 6.579184 0.455926 -2.934699
v 6.579184 0.512204 -2.917627
v 6.579184 0.570731 -2.911863
v 6.579184 0.629258 -2.917627
v 6.579184 0.685536 -2.934699
v 6.579184 0.737402 -2.962422
v 6.579184 0.782863 -2.999731
v 6.579184 0.820172 -3.045192
v 6.579184 0.847895 -3.097058
v 6.579184 0.864967 -3.153336
v 6.579184 0.870731 -3.211863
v 6.579184 0.864966 -3.270390
v 6.579184 0.847895 -3.326668
v 6.579184 0.820172 -3.378534
v 6.579184 0.782863 -3.423995
v 6.579184 0.737402 -3.461304
v 6.579184 0.685536 -3.489027
v 6.579184 0.629258 -3.506099
v 4.701491 -0.026881 -2.882798
v 4.701491 -0.026881 -3.549317
v -4.644016 -0.026881 -3.549317
v -4.644014 -0.026881 -2.882798
v 3.598063 -0.026881 3.420675
v 3.598063 -0.026881 -2.238951
v -5.747446 -0.026881 -2.238951
v -5.747443 -0.026881 3.420676
v 6.770965 -1.000000 4.092221
v 6.770965 -1.000000 -4.108753
v -6.770966 -1.000000 -4.108752
v -6.770963 -1.000000 4.092223
v 6.770967 1.000000 4.092219
v 6.770960 1.000000 -4.108755
v -6.770967 1.000000 -4.108751
v -6.770965 1.000000 4.092221
v -5.747447 1.000000 -2.238951
v 3.598063 1.000000 3.420674
v 3.598060 1.000000 -2.238953
v -5.747445 1.000000 3.420675
v 4.701308 1.000181 -3.549399
v -4.643800 1.000217 -3.549415
v 4.701493 1.000000 -2.882798
v 4.700652 1.000841 -3.053716
v -5.712234 -0.017574 -2.238951
v -4.644016 -0.017574 -3.545321
v -5.712234 1.000000 -2.238951
v -4.643731 1.000285 -3.545448
v -4.378454 -0.020239 -2.238951
v -3.822442 -0.020239 -2.882798
v -5.271153 -0.020239 -2.238951
v -4.644014 -0.020239 -2.882798
v -4.644014 -0.020239 -2.965161
v -5.271153 -0.017574 -2.238951
v -4.644014 -0.017574 -2.965161
v -4.378454 1.000000 -2.238951
v -3.822443 1.000000 -2.882798
v 6.292890 -0.026881 0.605922
v 6.292890 1.000000 0.597110
v 3.235742 1.000000 -2.882798
v 3.753558 1.000000 -2.882798
v 3.670374 1.000000 -2.872548
v 3.567974 1.000000 -2.865503
v 3.465556 1.000000 -2.863941
v 3.367359 1.000000 -2.867794
v 3.274246 1.000000 -2.876740
v 4.701491 0.252252 -3.253841
v 4.701491 0.260212 -3.292881
v 4.701491 0.273070 -3.329895
v 4.701491 0.290440 -3.364541
v 4.701491 0.311996 -3.396447
v 4.701491 0.337384 -3.425254
v 4.701491 0.366212 -3.450618
v 4.701490 0.398099 -3.472172
v 4.701490 0.432721 -3.489563
v 4.701490 0.469753 -3.502426
v 4.701489 0.508771 -3.510401
v 4.701489 0.549491 -3.513142
v 4.701489 0.590175 -3.510403
v 4.701489 0.629224 -3.502420
v 4.701490 0.666232 -3.489561
v 4.701490 0.700856 -3.472177
v 4.701490 0.732774 -3.450621
v 4.701490 0.761586 -3.425260
v 4.701490 0.786955 -3.396448
v 4.701490 0.808527 -3.364535
v 4.701491 0.825873 -3.329897
v 4.701491 0.838760 -3.292879
v 4.701491 0.846734 -3.253840
v 4.701491 0.849489 -3.213143
v 4.701493 0.846748 -3.172444
v 4.701493 0.838782 -3.133406
v 4.701493 0.825901 -3.096392
v 4.701493 0.808491 -3.061749
v 4.701493 0.786937 -3.029840
v 4.701493 0.761610 -3.001029
v 4.701493 0.732772 -2.975664
v 4.701493 0.700892 -2.954113
v 4.701493 0.666233 -2.936723
v 4.701493 0.629235 -2.923860
v 4.701491 0.398077 -2.954115
v 4.701491 0.366162 -2.975664
v 4.701491 0.337371 -3.001025
v 4.701491 0.312000 -3.029840
v 4.701491 0.290449 -3.061749
v 4.701491 0.273065 -3.096390
v 4.701491 0.260195 -3.133407
v 4.701491 0.252241 -3.172443
v 4.701491 0.249449 -3.213143
v 4.701207 0.321290 -3.045192
v 4.701335 0.570731 -3.511863
v 4.701316 0.629257 -3.506099
v 4.701284 0.685535 -3.489027
v 4.700778 0.847895 -3.097058
v 4.700800 0.820172 -3.045192
v 4.700808 0.864966 -3.153336
v 4.700916 0.782863 -2.999731
v 4.701321 0.629258 -2.917627
v 4.701349 0.570731 -2.911863
v 4.701238 0.685536 -2.934699
v 4.701243 0.276495 -3.270390
v 4.701297 0.404060 -3.461304
v 4.701249 0.270731 -3.211863
v 4.701230 0.293567 -3.326668
v 4.701321 0.512204 -2.917627
v 4.701180 0.782863 -3.423995
v 4.701238 0.737401 -3.461304
v 4.701114 0.820171 -3.378534
v 4.701243 0.276495 -3.153336
v 4.701139 0.404060 -2.962422
v 4.701177 0.358599 -2.999731
v 4.701230 0.293567 -3.097058
v 4.700884 0.870731 -3.211863
v 4.701100 0.737402 -2.962422
v 4.700962 0.864966 -3.270390
v 4.701257 0.358599 -3.423995
v 4.701238 0.455926 -2.934699
v 4.701207 0.321290 -3.378534
v 4.701040 0.847895 -3.326668
v 4.701325 0.455926 -3.489027
v 4.701337 0.512204 -3.506098
vt 1.000000 0.000000
vt 0.000000 1.000000
vt 0.000000 0.000000
vt 1.000000 0.000000
vt 0.000000 1.000000
vt 0.000000 0.000000
vt 1.000000 0.000000
vt 0.000000 1.000000
vt 0.000000 0.000000
vt 1.000000 0.000000
vt 0.000000 1.000000
vt 0.000000 0.000000
vt 1.000000 0.000000
vt 0.000000 1.000000
vt 0.000000 0.000000
vt 0.222215 0.915735
vt 0.308659 0.961940
vt 0.084265 0.222215
vt 1.000000 0.000000
vt 0.000000 1.000000
vt 0.000000 0.000000
vt 0.425479 0.005585
vt 0.283058 0.049516
vt 0.500000 1.000000
vt 0.000000 0.000000
vt 1.000000 1.000000
vt 0.000000 1.000000
vt 0.500000 1.000000
vt 0.853553 0.146447
vt 0.146447 0.146447
vt 0.975528 0.654508
vt 0.793893 0.095491
vt 0.206107 0.095492
vt 1.000000 0.000000
vt 0.000000 1.000000
vt 0.000000 0.000000
vt 0.024472 0.345491
vt 0.500000 1.000000
vt 0.793893 0.904508
vt 1.000000 0.000000
vt 0.000000 1.000000
vt 0.000000 0.000000
vt 1.000000 0.000000
vt 0.000000 1.000000
vt 0.000000 0.000000
vt 0.933013 0.750000
vt 0.500000 0.000000
vt 0.066987 0.250000
vt 1.000000 0.000000
vt 0.000000 1.000000
vt 1.000000 0.000000
vt 0.000000 1.000000
vt 0.000000 0.000000
vt 1.000000 0.000000
vt 0.000000 0.000000
vt 1.000000 0.000000
vt 0.000000 1.000000
vt 0.000000 0.000000
vt 0.500000 0.000000
vt 0.308658 0.038060
vt 0.853553 0.853553
vt 0.000000 0.000000
vt 0.206107 0.095492
vt 0.024472 0.654509
vt 0.500000 1.000000
vt 0.975528 0.654508
vt 0.206107 0.095492
vt 0.024472 0.654509
vt 0.000000 0.000000
vt 1.000000 1.000000
vt 0.000000 1.000000
vt 0.000000 0.000000
vt 1.000000 1.000000
vt 0.000000 1.000000
vt 0.853553 0.853553
vt 0.853553 0.146447
vt 0.500000 0.000000
vt 0.000000 0.000000
vt 1.000000 1.000000
vt 0.000000 1.000000
vt 1.000000 0.000000
vt 0.000000 1.000000
vt 0.000000 0.000000
vt 0.975528 0.654508
vt 0.793893 0.095491
vt 0.024472 0.654509
vt 0.000000 0.000000
vt 1.000000 1.000000
vt 0.000000 1.000000
vt 0.283058 0.049516
vt 0.012536 0.388740
vt 0.109084 0.811745
vt 0.000000 0.000000
vt 1.000000 1.000000
vt 0.000000 1.000000
vt 0.000000 0.000000
vt 1.000000 1.000000
vt 0.000000 1.000000
vt 0.000000 0.000000
vt 1.000000 1.000000
vt 0.000000 1.000000
vt 1.000000 0.000000
vt 0.000000 1.000000
vt 0.000000 0.000000
vt 1.000000 0.000000
vt 0.000000 1.000000
vt 0.000000 0.000000
vt 1.000000 0.000000
vt 0.000000 1.000000
vt 0.000000 0.000000
vt 0.000000 0.000000
vt 1.000000 1.000000
vt 0.000000 1.000000
vt 1.000000 0.000000
vt 0.000000 1.000000
vt 0.000000 0.000000
vt 0.000000 0.000000
vt 1.000000 1.000000
vt 0.000000 1.000000
vt 1.000000 0.000000
vt 0.000000 1.000000
vt 0.000000 0.000000
vt 1.000000 0.000000
vt 0.000000 1.000000
vt 0.000000 0.000000
vt 1.000000 0.000000
vt 0.000000 1.000000
vt 0.000000 0.000000
vt 0.000000 0.000000
vt 1.000000 1.000000
vt 0.000000 1.000000
vt 0.000000 0.000000
vt 1.000000 1.000000
vt 0.000000 1.000000
vt 0.000000 0.000000
vt 1.000000 1.000000
vt 0.000000 1.000000
vt 0.000000 0.000000
vt 1.000000 1.000000
vt 0.000000 1.000000
vt 1.000000 0.000000
vt 0.000000 1.000000
vt 0.000000 0.000000
vt 1.000000 0.000000
vt 0.000000 1.000000
vt 0.000000 0.000000
vt 0.654508 0.024472
vt 0.500000 0.000000
vt 0.206108 0.904509
vt 1.000000 0.000000
vt 0.000000 1.000000
vt 0.000000 0.000000
vt 0.000000 0.000000
vt 1.000000 1.000000
vt 0.000000 1.000000
vt 0.000000 0.000000
vt 1.000000 1.000000
vt 0.000000 1.000000
vt 1.000000 0.000000
vt 0.000000 1.000000
vt 0.000000 0.000000
vt 1.000000 0.000000
vt 0.000000 1.000000
vt 0.000000 0.000000
vt 1.000000 0.000000
vt 0.000000 1.000000
vt 0.000000 0.000000
vt 0.000000 0.000000
vt 1.000000 1.000000
vt 0.000000 1.000000
vt 0.000000 0.000000
vt 1.000000 1.000000
vt 0.000000 1.000000
vt 1.000000 0.000000
vt 0.000000 1.000000
vt 0.000000 0.000000
vt 0.000000 0.000000
vt 1.000000 1.000000
vt 0.000000 1.000000
vt 1.000000 0.000000
vt 0.000000 1.000000
vt 0.000000 0.000000
vt 1.000000 0.000000
vt 0.000000 1.000000
vt 0.000000 0.000000
vt 1.000000 0.000000
vt 0.000000 1.000000
vt 0.000000 0.000000
vt 0.000000 0.000000
vt 1.000000 1.000000
vt 0.000000 1.000000
vt 1.000000 1.000000
vt 1.000000 1.000000
vt 1.000000 1.000000
vt 1.000000 1.000000
vt 1.000000 1.000000
vt 0.402456 0.990393
vt 0.500000 1.000000
vt 0.308658 0.038060
vt 0.597545 0.990393
vt 0.402455 0.009607
vt 0.691342 0.961940
vt 0.500000 0.000000
vt 0.777785 0.915735
vt 0.597545 0.009607
vt 0.853553 0.853553
vt 0.915735 0.777785
vt 0.691342 0.038060
vt 0.961940 0.691342
vt 0.777785 0.084265
vt 0.990393 0.597545
vt 0.853553 0.146447
vt 1.000000 0.500000
vt 0.915735 0.222215
vt 0.990393 0.402455
vt 0.961940 0.308658
vt 0.222215 0.084265
vt 0.146446 0.146447
vt 0.038060 0.308659
vt 0.009607 0.402455
vt 0.146447 0.853554
vt 0.000000 0.500000
vt 0.038060 0.691342
vt 0.009607 0.597546
vt 0.084266 0.777786
vt 1.000000 1.000000
vt 0.647378 0.977786
vt 0.781660 0.913119
vt 0.890916 0.811745
vt 0.965437 0.682670
vt 0.218340 0.913119
vt 0.352622 0.977786
vt 0.109084 0.811745
vt 0.998602 0.537365
vt 0.987464 0.388739
vt 0.034563 0.682670
vt 0.001398 0.537365
vt 0.933013 0.250000
vt 0.840086 0.133474
vt 0.012536 0.388739
vt 0.066987 0.250000
vt 0.716942 0.049516
vt 0.574521 0.005585
vt 0.159914 0.133474
vt 1.000000 0.000000
vt 0.853553 0.853553
vt 1.000000 0.500000
vt 0.500000 0.000000
vt 0.000000 0.500000
vt 0.146447 0.853553
vt 0.024472 0.654509
vt 0.500000 1.000000
vt 1.000000 1.000000
vt 0.975528 0.654508
vt 0.793893 0.095491
vt 0.975528 0.345491
vt 0.500000 0.000000
vt 0.206107 0.095492
vt 0.024472 0.654509
vt 0.206108 0.904509
vt 1.000000 1.000000
vt 1.000000 1.000000
vt 0.066987 0.750000
vt 0.500000 1.000000
vt 0.933013 0.250000
vt 1.000000 1.000000
vt 1.000000 1.000000
vt 1.000000 1.000000
vt 1.000000 1.000000
vt 0.308659 0.961940
vt 0.500000 1.000000
vt 0.691342 0.961940
vt 0.961940 0.691342
vt 1.000000 0.500000
vt 0.146447 0.853554
vt 0.961940 0.308658
vt 0.038060 0.691342
vt 0.146447 0.146446
vt 0.038060 0.308658
vt 0.000000 0.500000
vt 0.853553 0.146447
vt 0.691342 0.038060
vt 1.000000 1.000000
vt 0.975528 0.654508
vt 0.793893 0.095491
vt 0.500000 1.000000
vt 0.793893 0.095491
vt 1.000000 0.000000
vt 1.000000 0.000000
vt 0.146447 0.853553
vt 0.500000 1.000000
vt 0.146447 0.146447
vt 0.000000 0.500000
vt 1.000000 0.000000
vt 1.000000 1.000000
vt 0.500000 1.000000
vt 0.206107 0.095492
vt 0.500000 1.000000
vt 0.987464 0.388739
vt 0.890916 0.811745
vt 0.716942 0.049516
vt 1.000000 0.000000
vt 1.000000 0.000000
vt 1.000000 0.000000
vt 1.000000 1.000000
vt 1.000000 1.000000
vt 1.000000 1.000000
vt 1.000000 0.000000
vt 1.000000 1.000000
vt 1.000000 0.000000
vt 1.000000 1.000000
vt 1.000000 1.000000
vt 1.000000 1.000000
vt 1.000000 0.000000
vt 1.000000 0.000000
vt 1.000000 0.000000
vt 1.000000 0.000000
vt 1.000000 1.000000
vt 1.000000 1.000000
vt 0.500000 1.000000
vt 0.654508 0.975528
vt 0.793893 0.904508
vt 0.904508 0.793893
vt 0.345492 0.975528
vt 0.793893 0.095491
vt 0.904508 0.206107
vt 0.024472 0.654509
vt 0.095492 0.793893
vt 0.000000 0.500000
vt 0.975528 0.654508
vt 1.000000 0.500000
vt 0.024472 0.345492
vt 0.095491 0.206108
vt 0.975528 0.345491
vt 0.206107 0.095492
vt 0.345491 0.024472
vt 1.000000 1.000000
vt 1.000000 0.000000
vt 1.000000 0.000000
vt 1.000000 1.000000
vt 1.000000 1.000000
vt 1.000000 1.000000
vt 1.000000 0.000000
vt 1.000000 0.000000
vt 1.000000 1.000000
vt 1.000000 0.000000
vt 1.000000 1.000000
vt 1.000000 1.000000
vt 1.000000 1.000000
vt 1.000000 0.000000
vn -1.0000 0.0000 0.0000
vn 0.0000 0.0000 -1.0000
vn 1.0000 0.0000 0.0000
vn 0.0000 0.0000 1.0000
vn 0.0000 -1.0000 0.0000
vn 0.0000 1.0000 0.0000
vn 1.0000 0.0008 0.0000
vn 0.0000 -0.0001 -1.0000
vn 0.7223 -0.0000 0.6916
vn 0.0000 -1.0000 0.0004
vn 0.0001 -1.0000 -0.0001
vn -0.7741 0.0001 -0.6331
vn 0.7568 0.0000 0.6536
vn 0.0000 0.0001 1.0000
vn -0.7568 0.0000 -0.6536
vn 0.7249 0.0000 -0.6888
vn 0.0000 -0.9952 0.0980
vn 0.0000 -0.7730 0.6344
vn 0.0000 -0.8819 0.4714
vn -0.0000 0.9952 -0.0980
vn 0.0000 -0.9569 -0.2903
vn 0.0000 -0.9952 -0.0980
vn 0.0000 -0.7730 -0.6344
vn 0.0000 0.0980 -0.9952
vn 0.0000 0.0980 0.9952
vn -0.0000 0.8819 -0.4714
vn 0.0000 -0.0980 0.9952
vn 0.0000 0.2903 -0.9569
vn 0.0000 -0.6344 -0.7730
vn -0.0000 0.4714 0.8819
vn 0.0000 -0.4714 -0.8819
vn -0.0000 -0.6344 0.7730
vn -0.0000 0.6344 -0.7730
vn -0.0000 0.9569 -0.2903
vn 1.0000 0.0002 0.0013
vn 0.0000 -0.4714 0.8819
vn -0.0000 0.6344 0.7730
vn -0.0000 0.8819 0.4714
vn 0.0000 -0.0980 -0.9952
vn 0.0000 -0.8819 -0.4714
vn -0.0000 0.9952 0.0980
vn 0.0000 -0.9569 0.2903
vn 0.0000 0.2903 0.9569
vn 0.0000 0.4714 -0.8819
vn 0.0000 -0.2903 -0.9569
vn 0.0000 -0.2903 0.9569
vn -0.0000 0.9569 0.2903
vn -0.0000 0.7730 -0.6344
vn 0.0000 0.7730 0.6344
vn 1.0000 -0.0001 0.0000
vn 1.0000 0.0001 0.0000
vn 1.0000 0.0002 0.0014
vn 1.0000 -0.0000 -0.0049
vn 1.0000 0.0001 -0.0038
vn -1.0000 -0.0002 0.0000
vn -1.0000 0.0003 0.0000
vn -0.9998 0.0003 0.0174
vn -1.0000 0.0002 -0.0005
vn 0.7234 0.0059 0.6904
vn -0.0004 -1.0000 -0.0000
vn 0.0109 -0.9999 -0.0050
vn 0.0003 -1.0000 0.0013
vn -0.0000 -1.0000 0.0003
vn 0.0208 -0.9996 0.0168
vn -0.7741 0.0000 -0.6330
vn 0.7260 -0.0059 -0.6877
vn 1.0000 -0.0000 -0.0050
vn 1.0000 0.0047 -0.0049
vn 1.0000 -0.0038 -0.0006
vn 1.0000 -0.0009 -0.0033
vn 1.0000 -0.0023 -0.0017
s off
f 2/1/1 3/2/1 1/3/1
f 4/4/2 7/5/2 3/6/2
f 8/7/3 5/8/3 7/9/3
f 6/10/4 1/11/4 5/12/4
f 7/13/5 1/11/5 3/6/5
f 4/4/6 6/14/6 8/15/6
f 13/16/3 12/17/3 21/18/3
f 44/19/5 42/20/5 41/21/5
f 143/22/7 149/23/7 41/24/7
f 42/25/8 62/26/8 61/27/8
f 43/28/1 73/29/1 66/30/1
f 48/31/5 47/32/5 46/33/5
f 78/34/9 58/35/9 45/36/9
f 69/37/2 46/38/2 47/39/2
f 48/40/1 57/41/1 47/42/1
f 50/43/6 52/44/6 49/45/6
f 56/46/5 57/47/5 60/48/5
f 53/49/1 50/50/1 49/45/1
f 54/51/4 51/52/4 50/53/4
f 55/54/3 52/44/3 51/55/3
f 49/56/2 56/57/2 53/58/2
f 84/59/5 83/60/5 59/61/5
f 48/40/4 58/35/4 60/62/4
f 62/63/10 55/64/10 54/65/10
f 67/66/11 55/67/11 62/68/11
f 66/69/12 67/70/12 68/71/12
f 69/72/13 77/73/13 76/74/13
f 70/75/14 44/76/14 41/77/14
f 73/78/15 74/79/15 75/80/15
f 74/81/5 66/82/5 75/83/5
f 69/84/5 71/85/5 72/86/5
f 79/87/16 46/88/16 59/89/16
f 85/90/5 86/91/5 80/92/5
f 143/93/17 18/94/17 149/95/17
f 130/96/18 21/97/18 151/98/18
f 152/99/19 20/100/19 130/101/19
f 33/102/20 155/103/20 153/104/20
f 15/105/21 141/106/21 144/107/21
f 16/108/22 143/109/22 141/110/22
f 156/111/23 14/112/23 158/113/23
f 40/114/24 131/115/24 132/116/24
f 139/117/25 26/118/25 138/119/25
f 35/120/26 148/121/26 159/122/26
f 24/123/27 139/124/27 145/125/27
f 39/126/28 132/127/28 133/128/28
f 142/129/29 13/130/29 156/131/29
f 140/132/30 28/133/30 154/134/30
f 160/135/31 12/136/31 142/137/31
f 151/138/32 22/139/32 150/140/32
f 37/141/33 147/142/33 146/143/33
f 34/144/34 159/145/34 155/146/34
f 153/147/35 155/148/35 61/149/35
f 22/150/36 157/151/36 150/152/36
f 154/153/37 29/154/37 137/155/37
f 135/156/38 31/157/38 134/158/38
f 9/159/39 161/160/39 131/161/39
f 14/162/40 144/163/40 158/164/40
f 32/165/41 153/166/41 136/167/41
f 149/168/42 19/169/42 152/170/42
f 138/171/43 27/172/43 140/173/43
f 38/174/44 133/175/44 147/176/44
f 161/177/45 11/178/45 160/179/45
f 23/180/46 145/181/46 157/182/46
f 31/183/47 136/184/47 134/185/47
f 36/186/48 146/187/48 148/188/48
f 137/189/49 30/190/49 135/191/49
f 2/1/1 4/192/1 3/2/1
f 4/4/2 8/193/2 7/5/2
f 8/7/3 6/194/3 5/8/3
f 6/10/4 2/195/4 1/11/4
f 7/13/5 5/196/5 1/11/5
f 4/4/6 2/195/6 6/14/6
f 11/197/3 10/198/3 24/199/3
f 10/198/3 9/200/3 25/201/3
f 9/200/3 40/202/3 26/203/3
f 40/202/3 39/204/3 27/205/3
f 39/204/3 38/206/3 27/205/3
f 38/206/3 37/207/3 28/208/3
f 27/205/3 38/206/3 28/208/3
f 37/207/3 36/209/3 29/210/3
f 36/209/3 35/211/3 30/212/3
f 29/210/3 36/209/3 30/212/3
f 35/211/3 34/213/3 31/214/3
f 34/213/50 33/215/50 32/216/50
f 31/214/3 34/213/3 32/216/3
f 31/214/3 30/212/3 35/211/3
f 29/210/3 28/208/3 37/207/3
f 27/205/3 26/203/3 40/202/3
f 26/203/3 25/201/3 9/200/3
f 25/201/3 24/199/3 10/198/3
f 24/199/3 23/217/3 11/197/3
f 23/217/3 22/218/3 11/197/3
f 22/218/3 21/18/3 12/17/3
f 11/197/3 22/218/3 12/17/3
f 21/18/3 20/219/3 13/16/3
f 20/219/3 19/220/3 14/221/3
f 13/16/3 20/219/3 14/221/3
f 19/220/3 18/222/3 16/223/3
f 18/222/51 17/224/51 16/223/51
f 16/223/3 15/225/3 19/220/3
f 15/225/3 14/221/3 19/220/3
f 44/19/5 43/226/5 42/20/5
f 42/227/35 61/228/35 131/229/35
f 42/227/52 131/229/52 161/230/52
f 139/231/53 63/232/53 41/24/53
f 145/233/53 139/231/53 41/24/53
f 42/227/35 161/230/35 160/234/35
f 42/227/52 160/234/52 142/235/52
f 157/236/53 145/233/53 41/24/53
f 150/237/54 157/236/54 41/24/54
f 42/227/35 142/235/35 156/238/35
f 42/227/35 156/238/35 158/239/35
f 151/240/7 150/237/7 41/24/7
f 130/241/7 151/240/7 41/24/7
f 41/24/7 42/227/7 143/22/7
f 42/227/7 158/239/7 144/242/7
f 42/227/7 144/242/7 141/243/7
f 152/244/7 130/241/7 41/24/7
f 149/23/7 152/244/7 41/24/7
f 42/227/7 141/243/7 143/22/7
f 42/25/8 43/245/8 62/26/8
f 43/28/55 44/246/55 73/29/55
f 44/246/1 72/247/1 73/29/1
f 73/29/56 75/248/56 66/30/56
f 68/249/57 62/250/57 66/30/57
f 62/250/58 43/28/58 66/30/58
f 78/251/5 45/252/5 46/33/5
f 45/252/5 48/31/5 46/33/5
f 78/34/59 79/253/59 58/35/59
f 47/39/2 57/254/2 65/255/2
f 57/254/2 67/256/2 65/255/2
f 65/255/2 74/257/2 71/258/2
f 76/259/2 59/260/2 69/37/2
f 59/260/2 46/38/2 69/37/2
f 47/39/2 65/255/2 71/258/2
f 71/258/2 69/37/2 47/39/2
f 48/40/1 60/261/1 57/41/1
f 50/43/6 51/262/6 52/44/6
f 58/263/5 53/264/5 56/46/5
f 56/46/5 55/265/5 57/47/5
f 60/48/5 58/263/5 56/46/5
f 53/49/1 54/266/1 50/50/1
f 54/51/4 55/267/4 51/52/4
f 55/54/3 56/268/3 52/44/3
f 49/56/2 52/269/2 56/57/2
f 53/270/5 58/271/5 79/272/5
f 59/61/5 76/273/5 77/274/5
f 54/275/5 53/270/5 79/272/5
f 59/61/5 77/274/5 80/276/5
f 64/277/60 54/275/60 79/272/60
f 82/278/5 81/279/5 59/61/5
f 81/279/5 63/280/5 59/61/5
f 63/280/61 64/277/61 79/272/61
f 79/272/5 59/61/5 63/280/5
f 59/61/5 80/276/5 86/281/5
f 59/61/5 86/281/5 85/282/5
f 83/60/5 82/278/5 59/61/5
f 59/61/5 85/282/5 84/59/5
f 48/40/4 45/283/4 58/35/4
f 54/65/62 64/284/62 61/285/62
f 61/285/63 62/63/63 54/65/63
f 62/68/64 68/286/64 67/66/64
f 67/66/5 57/287/5 55/67/5
f 66/69/65 65/288/65 67/70/65
f 69/72/13 70/289/13 77/73/13
f 80/290/4 77/291/4 70/75/4
f 70/75/4 72/247/4 44/76/4
f 41/77/4 63/292/4 81/293/4
f 81/293/4 80/290/4 41/77/4
f 80/290/4 70/75/4 41/77/4
f 73/78/15 71/294/15 74/79/15
f 74/81/5 65/295/5 66/82/5
f 72/86/5 70/296/5 69/84/5
f 71/85/5 73/297/5 72/86/5
f 79/87/66 78/34/66 46/88/66
f 80/92/5 81/298/5 83/299/5
f 81/298/5 82/300/5 83/299/5
f 83/299/5 84/301/5 80/92/5
f 84/301/5 85/90/5 80/92/5
f 143/93/17 17/302/17 18/94/17
f 130/96/18 20/303/18 21/97/18
f 152/99/19 19/304/19 20/100/19
f 33/102/20 34/305/20 155/103/20
f 15/105/21 16/306/21 141/106/21
f 16/108/22 17/307/22 143/109/22
f 156/111/23 13/308/23 14/112/23
f 40/114/24 9/309/24 131/115/24
f 139/117/25 25/310/25 26/118/25
f 35/120/26 36/311/26 148/121/26
f 24/123/27 25/312/27 139/124/27
f 39/126/28 40/313/28 132/127/28
f 142/129/29 12/314/29 13/130/29
f 140/132/30 27/315/30 28/133/30
f 160/135/31 11/316/31 12/136/31
f 151/138/32 21/317/32 22/139/32
f 37/141/33 38/318/33 147/142/33
f 34/144/34 35/319/34 159/145/34
f 63/320/67 139/321/67 138/322/67
f 63/320/53 138/322/53 140/323/53
f 61/149/35 64/324/35 153/147/35
f 64/324/68 63/320/68 136/325/68
f 136/325/69 63/320/69 134/326/69
f 132/327/52 131/328/52 61/149/52
f 133/329/35 132/327/35 61/149/35
f 63/320/53 140/323/53 154/330/53
f 63/320/53 154/330/53 137/331/53
f 147/332/35 133/329/35 61/149/35
f 146/333/35 147/332/35 61/149/35
f 63/320/70 137/331/70 135/334/70
f 63/320/71 135/334/71 134/326/71
f 148/335/35 146/333/35 61/149/35
f 159/336/35 148/335/35 61/149/35
f 64/324/35 136/325/35 153/147/35
f 155/148/35 159/336/35 61/149/35
f 22/150/36 23/337/36 157/151/36
f 154/153/37 28/338/37 29/154/37
f 135/156/38 30/339/38 31/157/38
f 9/159/39 10/340/39 161/160/39
f 14/162/40 15/341/40 144/163/40
f 32/165/41 33/342/41 153/166/41
f 149/168/42 18/343/42 19/169/42
f 138/171/43 26/344/43 27/172/43
f 38/174/44 39/345/44 133/175/44
f 161/177/45 10/346/45 11/178/45
f 23/180/46 24/347/46 145/181/46
f 31/183/47 32/348/47 136/184/47
f 36/186/48 37/349/48 146/187/48
f 137/189/49 29/350/49 30/190/49
v 4.701479 0.249497 -3.213144
v 4.701479 0.252237 -3.253842
v 4.701479 0.260217 -3.292879
v 4.701479 0.273079 -3.329897
v 4.701479 0.290466 -3.364538
v 4.701479 0.312020 -3.396444
v 4.701479 0.337383 -3.425258
v 4.701479 0.366196 -3.450620
v 4.701479 0.398103 -3.472174
v 4.701479 0.432744 -3.489561
v 4.701479 0.469762 -3.502424
v 4.701479 0.508799 -3.510404
v 4.701479 0.549497 -3.513144
v 4.701479 0.590195 -3.510404
v 4.701479 0.629232 -3.502424
v 4.701479 0.666250 -3.489561
v 4.701479 0.700891 -3.472174
v 4.701479 0.732798 -3.450620
v 4.701479 0.761611 -3.425258
v 4.701479 0.786974 -3.396444
v 4.701479 0.808528 -3.364538
v 4.701479 0.825915 -3.329897
v 4.701479 0.838777 -3.292879
v 4.701479 0.846757 -3.253842
v 4.701479 0.849497 -3.213144
v 4.701479 0.846757 -3.172445
v 4.701479 0.838777 -3.133408
v 4.701479 0.825915 -3.096390
v 4.701479 0.808528 -3.061749
v 4.701479 0.786974 -3.029843
v 4.701479 0.761611 -3.001029
v 4.701479 0.732798 -2.975667
v 4.701479 0.700891 -2.954113
v 4.701479 0.666250 -2.936726
v 4.701479 0.629232 -2.923863
v 4.701479 0.590195 -2.915883
v 4.701479 0.549497 -2.913144
v 4.701479 0.508799 -2.915883
v 4.701479 0.469762 -2.923863
v 4.701479 0.432744 -2.936726
v 4.701479 0.398103 -2.954113
v 4.701479 0.366196 -2.975667
v 4.701479 0.337383 -3.001029
v 4.701479 0.312020 -3.029843
v 4.701479 0.290466 -3.061749
v 4.701479 0.273079 -3.096390
v 4.701479 0.260217 -3.133408
v 4.701479 0.252237 -3.172445
