# Blender v2.79 (sub 0) OBJ File: ''
# www.blender.org
v 2.605184 0.056250 3.508943
v 2.605184 0.056250 -3.508943
v -2.605184 0.056250 -3.508942
v -2.605183 0.056250 3.508944
v 3.152963 -0.590706 4.246751
v 3.152963 -0.590706 -4.246751
v -3.152964 -0.590706 -4.246750
v -3.152962 -0.590706 4.246753
v 3.152965 0.590706 4.246749
v 3.152961 0.590706 -4.246754
v -3.152964 0.590706 -4.246750
v -3.152963 0.590706 4.246751
v -2.605183 0.590706 3.508943
v -2.605185 0.590706 -3.508942
v 2.605183 0.590706 -3.508944
v 2.605185 0.590706 3.508942
vn 0.0000 1.0000 0.0000
vn -1.0000 0.0000 0.0000
vn 0.0000 0.0000 1.0000
vn 1.0000 0.0000 -0.0000
vn 0.0000 -1.0000 0.0000
vn -0.0000 -0.0000 -1.0000
s off
f 4//1 1//1 2//1
f 2//2 1//2 16//2
f 3//3 2//3 15//3
f 4//4 3//4 14//4
f 6//5 5//5 8//5
f 12//1 13//1 14//1
f 9//4 5//4 6//4
f 10//6 6//6 7//6
f 7//2 8//2 12//2
f 5//3 9//3 12//3
f 10//1 15//1 9//1
f 4//6 13//6 16//6
f 4//1 2//1 3//1
f 2//2 16//2 15//2
f 3//3 15//3 14//3
f 4//4 14//4 13//4
f 6//5 8//5 7//5
f 16//1 12//1 9//1
f 12//1 14//1 11//1
f 13//1 12//1 16//1
f 9//4 6//4 10//4
f 10//6 7//6 11//6
f 7//2 12//2 11//2
f 5//3 12//3 8//3
f 9//1 15//1 16//1
f 15//1 10//1 14//1
f 14//1 10//1 11//1
f 4//6 16//6 1//6
