# Blender v2.79 (sub 0) OBJ File: ''
# www.blender.org
v -0.187221 0.155749 -0.121414
v -0.187221 0.155749 -0.225771
v -0.187221 0.116152 -0.225771
v 0.125852 0.155749 -0.225771
v 0.230209 0.155749 -0.225771
v 0.230209 0.116152 -0.225771
v 0.230209 0.155749 0.087301
v 0.230209 0.155749 0.191659
v 0.230209 0.116152 0.191659
v -0.082863 0.155749 0.191659
v -0.187221 0.155749 0.191659
v -0.187221 0.116152 0.191659
v 0.230209 0.076554 -0.017056
v 0.021494 0.076554 0.191659
v 0.021494 0.076554 -0.017056
v -0.139628 0.155749 0.144065
v 0.021494 0.155749 0.144065
v 0.125852 0.155749 0.191659
v 0.182616 0.155749 0.144065
v 0.021494 0.155749 -0.178178
v 0.182616 0.155749 -0.017056
v 0.182616 0.155749 -0.178178
v -0.139628 0.155749 -0.017056
v -0.139628 0.155749 -0.178178
v -0.187221 0.076554 0.191659
v -0.187221 0.076554 -0.017056
v 0.021494 0.076554 -0.225771
v -0.187221 0.076554 -0.225771
v 0.230209 0.076554 -0.225771
v 0.021494 0.116152 0.191659
v 0.230209 0.076554 0.191659
v 0.021494 0.155749 0.191659
v 0.230209 0.116152 -0.017056
v 0.230209 0.155749 -0.121414
v 0.230209 0.155749 -0.017056
v 0.021494 0.116152 -0.225771
v -0.082863 0.155749 -0.225771
v 0.021494 0.155749 -0.225771
v -0.187221 0.116152 -0.017056
v -0.187221 0.155749 0.087301
v -0.187221 0.155749 -0.017056
v 0.021494 0.755838 -0.017056
vt 0.000000 0.000000
vt 1.000000 0.000000
vt 1.000000 1.000000
vt 0.000000 0.000000
vt 1.000000 0.000000
vt 1.000000 1.000000
vt 0.000000 0.000000
vt 1.000000 0.000000
vt 1.000000 1.000000
vt 0.000000 0.000000
vt 1.000000 0.000000
vt 1.000000 1.000000
vt 0.000000 0.000000
vt 1.000000 0.000000
vt 1.000000 1.000000
vt 0.000000 0.000000
vt 1.000000 1.000000
vt 0.000000 0.000000
vt 1.000000 0.000000
vt 1.000000 1.000000
vt 0.000000 0.000000
vt 1.000000 0.000000
vt 1.000000 1.000000
vt 1.000000 0.000000
vt 1.000000 1.000000
vt 0.000000 0.000000
vt 1.000000 0.000000
vt 1.000000 1.000000
vt 0.000000 0.000000
vt 1.000000 0.000000
vt 1.000000 1.000000
vt 0.000000 0.000000
vt 1.000000 0.000000
vt 1.000000 1.000000
vt 0.000000 0.000000
vt 1.000000 1.000000
vt 0.000000 0.000000
vt 1.000000 1.000000
vt 0.000000 0.000000
vt 1.000000 0.000000
vt 1.000000 1.000000
vt 0.000000 0.000000
vt 1.000000 0.000000
vt 1.000000 1.000000
vt 0.000000 0.000000
vt 1.000000 0.000000
vt 1.000000 1.000000
vt 0.000000 0.000000
vt 1.000000 0.000000
vt 1.000000 1.000000
vt 0.000000 0.000000
vt 1.000000 0.000000
vt 0.000000 0.000000
vt 1.000000 0.000000
vt 0.000000 0.000000
vt 1.000000 0.000000
vt 1.000000 1.000000
vt 0.000000 0.000000
vt 1.000000 0.000000
vt 0.000000 0.000000
vt 1.000000 1.000000
vt 0.000000 0.000000
vt 1.000000 0.000000
vt 1.000000 1.000000
vt 1.000000 1.000000
vt 1.000000 0.000000
vt 1.000000 1.000000
vt 0.000000 0.000000
vt 1.000000 0.000000
vt 1.000000 1.000000
vt 1.000000 1.000000
vt 0.000000 0.000000
vt 1.000000 0.000000
vt 1.000000 1.000000
vt 0.000000 0.000000
vt 1.000000 1.000000
vt 0.000000 0.000000
vt 1.000000 0.000000
vt 1.000000 0.000000
vt 1.000000 0.000000
vt 1.000000 1.000000
vt 0.000000 0.000000
vt 1.000000 0.000000
vt 1.000000 1.000000
vt 1.000000 0.000000
vt 1.000000 1.000000
vt 1.000000 0.000000
vt 1.000000 1.000000
vt 1.000000 0.000000
vt 1.000000 0.000000
vt 1.000000 1.000000
vt 1.000000 1.000000
vt 1.000000 0.000000
vt 1.000000 1.000000
vt 1.000000 1.000000
vt 1.000000 0.000000
vt 1.000000 0.000000
vt 1.000000 0.000000
vt 1.000000 0.000000
vt 1.000000 1.000000
vt 1.000000 1.000000
vt 1.000000 0.000000
vt 1.000000 0.000000
vt 1.000000 1.000000
vt 1.000000 0.000000
vt 1.000000 1.000000
vt 1.000000 0.000000
vn -1.0000 0.0000 0.0000
vn 0.0000 0.0000 -1.0000
vn 1.0000 -0.0000 0.0000
vn 0.0000 0.0000 1.0000
vn 0.0000 -1.0000 -0.0000
vn -0.0000 1.0000 0.0000
vn -0.6947 0.1865 -0.6947
vn -0.6947 0.1865 0.6947
vn 0.6947 0.1865 -0.6947
vn 0.6947 0.1865 0.6947
s 1
f 1/1/1 2/2/1 3/3/1
f 4/4/2 5/5/2 6/6/2
f 7/7/3 8/8/3 9/9/3
f 10/10/4 11/11/4 12/12/4
f 13/13/5 14/14/5 15/15/5
f 16/16/6 11/11/6 10/17/6
f 17/18/6 18/19/6 19/20/6
f 20/21/6 21/22/6 22/23/6
f 1/1/6 23/24/6 24/25/6
f 15/26/5 25/27/5 26/28/5
f 27/29/5 26/30/5 28/31/5
f 29/32/5 15/33/5 27/34/5
f 30/35/4 25/27/4 14/36/4
f 9/37/4 14/14/4 31/38/4
f 18/39/4 32/40/4 30/41/4
f 33/42/3 31/43/3 13/44/3
f 6/45/3 13/46/3 29/47/3
f 34/48/3 35/49/3 33/50/3
f 36/51/2 29/52/2 27/34/2
f 3/53/2 27/54/2 28/31/2
f 37/55/2 38/56/2 36/57/2
f 39/58/1 28/59/1 26/28/1
f 12/60/1 26/30/1 25/61/1
f 40/62/1 41/63/1 39/64/1
f 20/21/7 23/24/7 42/65/7
f 37/55/6 20/66/6 38/67/6
f 2/68/6 24/69/6 37/70/6
f 34/48/6 21/22/6 35/71/6
f 5/72/6 22/73/6 34/74/6
f 4/4/6 20/66/6 22/23/6
f 19/75/6 8/8/6 7/76/6
f 21/77/6 7/78/6 35/71/6
f 21/77/6 17/79/6 19/20/6
f 17/18/6 10/80/6 32/81/6
f 23/82/8 17/79/8 42/65/8
f 23/82/6 40/83/6 16/84/6
f 3/53/1 39/85/1 1/86/1
f 39/58/1 41/63/1 1/86/1
f 6/45/2 36/87/2 4/88/2
f 36/51/2 38/56/2 4/88/2
f 9/37/3 33/89/3 7/76/3
f 33/42/3 35/49/3 7/76/3
f 12/60/4 30/90/4 10/17/4
f 30/35/4 32/40/4 10/17/4
f 13/13/5 31/43/5 14/36/5
f 16/16/6 40/83/6 11/91/6
f 17/18/6 32/40/6 18/92/6
f 20/21/9 42/93/9 21/94/9
f 1/1/6 41/63/6 23/95/6
f 15/26/5 14/14/5 25/61/5
f 27/29/5 15/33/5 26/28/5
f 29/32/5 13/46/5 15/15/5
f 30/35/4 12/96/4 25/61/4
f 9/37/4 30/90/4 14/36/4
f 30/35/4 9/97/4 18/92/4
f 9/37/4 8/8/4 18/92/4
f 33/42/3 9/97/3 31/38/3
f 6/45/3 33/89/3 13/44/3
f 33/42/3 6/98/3 34/74/3
f 6/45/3 5/5/3 34/74/3
f 36/51/2 6/98/2 29/47/2
f 3/53/2 36/87/2 27/34/2
f 36/51/2 3/99/2 37/70/2
f 3/53/2 2/2/2 37/70/2
f 39/58/1 3/99/1 28/31/1
f 12/60/1 39/85/1 26/28/1
f 39/58/1 12/96/1 40/100/1
f 12/60/1 11/11/1 40/100/1
f 20/21/6 24/69/6 23/95/6
f 37/55/6 24/69/6 20/101/6
f 2/68/6 1/102/6 24/25/6
f 34/48/6 22/73/6 21/94/6
f 5/72/6 4/103/6 22/23/6
f 4/4/6 38/56/6 20/101/6
f 19/75/6 18/19/6 8/104/6
f 21/77/6 19/105/6 7/76/6
f 21/77/10 42/93/10 17/106/10
f 17/18/6 16/107/6 10/17/6
f 23/82/6 16/107/6 17/106/6
f 23/82/6 41/63/6 40/100/6
