# Blender v2.79 (sub 0) OBJ File: 'pinballtablev3separate.blend'
# www.blender.org
v 4.113917 -0.385133 2.183097
v 3.976859 -0.390682 1.837370
v 4.058325 -0.385051 2.162257
v 4.011174 -0.385227 2.132034
v 3.974276 -0.385653 2.093590
v 3.949048 -0.386314 2.048400
v 3.936461 -0.387184 1.998204
v 3.936998 -0.388229 1.944928
v 3.950639 -0.389410 1.890621
v 3.985529 0.594111 1.818128
v 4.122588 0.599659 2.163856
v 3.959309 0.595382 1.871379
v 3.945669 0.596563 1.925686
v 3.945132 0.597609 1.978962
v 3.957719 0.598479 2.029159
v 3.982946 0.599140 2.074348
v 4.019845 0.599566 2.112793
v 4.066996 0.599741 2.143016
v 4.453194 -0.392623 1.952677
v 4.113917 -0.385133 2.183097
v 4.437315 -0.391341 2.011117
v 4.411053 -0.390069 2.064363
v 4.375417 -0.388857 2.110371
v 4.331778 -0.387750 2.147372
v 4.281811 -0.386790 2.173944
v 4.227438 -0.386016 2.189066
v 4.170747 -0.385457 2.192157
v 4.122588 0.599659 2.163856
v 4.461864 0.592170 1.933435
v 4.179418 0.599336 2.172915
v 4.236108 0.598776 2.169824
v 4.290482 0.598002 2.154702
v 4.340448 0.597043 2.128130
v 4.384088 0.595936 2.091130
v 4.419723 0.594723 2.045122
v 4.445985 0.593451 1.991875
v 4.502064 -0.411882 0.988981
v 4.612900 -0.412036 1.031078
v 4.560794 -0.413924 0.910944
v 4.602481 -0.414670 0.891541
v 4.620779 -0.414007 0.933727
v 4.621571 0.572757 1.011836
v 4.510734 0.572910 0.969739
v 4.629449 0.570785 0.914485
v 4.611152 0.570122 0.872300
v 4.569465 0.570868 0.891702
vt 0.000000 0.000000
vt 1.000000 1.000000
vt 0.000000 1.000000
vt 0.300800 0.041394
vt 0.091515 0.211660
vt 0.240208 0.927209
vt 1.000000 0.000000
vt 0.000000 1.000000
vt 0.000000 0.000000
vt 1.000000 0.000000
vt 0.000000 1.000000
vt 0.000000 0.000000
vt 1.000000 0.000000
vt 0.000000 1.000000
vt 0.000000 0.000000
vt 1.000000 0.000000
vt 0.000000 1.000000
vt 0.000000 0.000000
vt 1.000000 0.000000
vt 0.000000 1.000000
vt 0.000000 0.000000
vt 1.000000 0.000000
vt 0.000000 1.000000
vt 0.000000 0.000000
vt 1.000000 0.000000
vt 0.000000 1.000000
vt 0.000000 0.000000
vt 1.000000 0.000000
vt 0.000000 1.000000
vt 0.000000 0.000000
vt 1.000000 0.000000
vt 0.000000 1.000000
vt 0.000000 0.000000
vt 1.000000 0.000000
vt 0.000000 1.000000
vt 0.000000 0.000000
vt 1.000000 0.000000
vt 0.000000 1.000000
vt 0.000000 0.000000
vt 1.000000 0.000000
vt 0.000000 1.000000
vt 0.000000 0.000000
vt 1.000000 0.000000
vt 0.000000 1.000000
vt 0.000000 0.000000
vt 1.000000 0.000000
vt 0.000000 1.000000
vt 0.000000 0.000000
vt 1.000000 0.000000
vt 0.000000 1.000000
vt 0.000000 0.000000
vt 1.000000 0.000000
vt 0.000000 1.000000
vt 0.000000 0.000000
vt 1.000000 0.000000
vt 0.000000 1.000000
vt 0.000000 0.000000
vt 0.365101 0.981459
vt 0.634898 0.981459
vt 0.184456 0.112144
vt 1.000000 0.000000
vt 0.000000 1.000000
vt 0.000000 0.000000
vt 1.000000 0.000000
vt 0.000000 1.000000
vt 0.000000 0.000000
vt 1.000000 0.000000
vt 0.000000 1.000000
vt 0.000000 0.000000
vt 1.000000 0.000000
vt 0.000000 1.000000
vt 0.000000 0.000000
vt 1.000000 0.000000
vt 0.000000 1.000000
vt 0.000000 0.000000
vt 1.000000 0.000000
vt 0.365101 0.981459
vt 0.500000 1.000000
vt 0.989542 0.601728
vt 0.634898 0.981459
vt 0.943943 0.730033
vt 0.759792 0.927210
vt 0.865418 0.841277
vt 0.998834 0.465879
vt 0.971130 0.332560
vt 0.908485 0.211660
vt 0.815544 0.112144
vt 0.699201 0.041394
vt 0.568084 0.004657
vt 0.431917 0.004657
vt 0.184456 0.112144
vt 0.056057 0.730032
vt 0.134582 0.841276
vt 0.028870 0.332560
vt 0.001166 0.465879
vt 0.010458 0.601728
vt 1.000000 1.000000
vt 1.000000 1.000000
vt 1.000000 1.000000
vt 1.000000 1.000000
vt 1.000000 1.000000
vt 1.000000 1.000000
vt 1.000000 1.000000
vt 1.000000 1.000000
vt 1.000000 1.000000
vt 1.000000 1.000000
vt 1.000000 1.000000
vt 1.000000 1.000000
vt 1.000000 1.000000
vt 1.000000 1.000000
vt 1.000000 1.000000
vt 1.000000 1.000000
vt 1.000000 1.000000
vt 0.500000 1.000000
vt 0.759792 0.927210
vt 0.865418 0.841277
vt 0.943943 0.730033
vt 0.989542 0.601728
vt 0.998834 0.465879
vt 0.971130 0.332560
vt 0.908485 0.211660
vt 0.815544 0.112144
vt 0.300800 0.041394
vt 0.699201 0.041394
vt 0.431917 0.004657
vt 0.568084 0.004657
vt 0.091515 0.211660
vt 0.028870 0.332560
vt 0.240208 0.927209
vt 0.001166 0.465879
vt 0.134582 0.841276
vt 0.010458 0.601728
vt 0.056057 0.730032
vt 1.000000 1.000000
vt 1.000000 1.000000
vt 1.000000 1.000000
vt 1.000000 1.000000
vt 1.000000 1.000000
vn 0.0000 0.0000 1.0000
vn -0.0088 -0.9998 0.0195
vn -0.8972 -0.0007 -0.4417
vn -0.9698 0.0038 -0.2437
vn -0.9999 0.0086 -0.0102
vn -0.9699 0.0133 0.2430
vn -0.8731 0.0172 0.4872
vn -0.7214 0.0199 0.6922
vn -0.5396 0.0212 0.8417
vn -0.3509 0.0214 0.9362
vn -0.8503 -0.0028 -0.5263
vn -0.1573 0.0207 0.9873
vn 0.0546 0.0190 0.9983
vn 0.2681 0.0165 0.9632
vn 0.4697 0.0131 0.8827
vn 0.6468 0.0092 0.7626
vn 0.7906 0.0050 0.6123
vn 0.8969 0.0007 0.4423
vn 0.9650 -0.0034 0.2623
vn 0.0088 0.9998 -0.0195
vn -0.7991 -0.0047 -0.6012
vn -0.4221 -0.0140 -0.9064
vn 0.9174 -0.0158 -0.3977
vn 0.9967 -0.0072 0.0808
vn 0.9853 -0.0053 0.1709
vn -0.9999 0.0086 -0.0103
s off
f 20/1/1 11/2/1 1/3/1
f 20/4/2 3/5/2 9/6/2
f 2/7/3 12/8/3 10/9/3
f 9/10/4 13/11/4 12/12/4
f 8/13/5 14/14/5 13/15/5
f 7/16/6 15/17/6 14/18/6
f 6/19/7 16/20/7 15/21/7
f 5/22/8 17/23/8 16/24/8
f 4/25/9 18/26/9 17/27/9
f 3/28/10 11/29/10 18/30/10
f 10/31/11 37/32/11 2/33/11
f 20/34/12 30/35/12 28/36/12
f 27/37/13 31/38/13 30/39/13
f 26/40/14 32/41/14 31/42/14
f 25/43/15 33/44/15 32/45/15
f 24/46/16 34/47/16 33/48/16
f 23/49/17 35/50/17 34/51/17
f 22/52/18 36/53/18 35/54/18
f 21/55/19 29/56/19 36/57/19
f 11/58/20 30/59/20 10/60/20
f 43/61/21 39/62/21 37/63/21
f 46/64/22 40/65/22 39/66/22
f 45/67/23 41/68/23 40/69/23
f 44/70/24 38/71/24 41/72/24
f 42/73/25 19/74/25 38/75/25
f 20/1/1 28/76/1 11/2/1
f 2/77/2 37/78/2 19/79/2
f 37/78/2 39/80/2 38/81/2
f 19/79/2 37/78/2 38/81/2
f 39/80/2 40/82/2 41/83/2
f 41/83/2 38/81/2 39/80/2
f 19/79/2 21/84/2 2/77/2
f 21/84/2 22/85/2 2/77/2
f 22/85/2 23/86/2 2/77/2
f 23/86/2 24/87/2 2/77/2
f 24/87/2 25/88/2 2/77/2
f 25/88/2 26/89/2 2/77/2
f 26/89/2 27/90/2 2/77/2
f 27/90/2 20/4/2 2/77/2
f 20/4/1 1/91/1 3/5/1
f 9/6/2 2/77/2 20/4/2
f 7/92/2 8/93/2 4/94/2
f 8/93/2 9/6/2 3/5/2
f 5/95/2 6/96/2 7/92/2
f 3/5/2 4/94/2 8/93/2
f 4/94/2 5/95/2 7/92/2
f 2/7/3 9/97/3 12/8/3
f 9/10/4 8/98/4 13/11/4
f 8/13/26 7/99/26 14/14/26
f 7/16/6 6/100/6 15/17/6
f 6/19/7 5/101/7 16/20/7
f 5/22/8 4/102/8 17/23/8
f 4/25/9 3/103/9 18/26/9
f 3/28/10 1/104/10 11/29/10
f 10/31/11 43/105/11 37/32/11
f 20/34/12 27/106/12 30/35/12
f 27/37/13 26/107/13 31/38/13
f 26/40/14 25/108/14 32/41/14
f 25/43/15 24/109/15 33/44/15
f 24/46/16 23/110/16 34/47/16
f 23/49/17 22/111/17 35/50/17
f 22/52/18 21/112/18 36/53/18
f 21/55/19 19/113/19 29/56/19
f 11/58/1 28/114/1 30/59/1
f 30/59/20 31/115/20 10/60/20
f 31/115/20 32/116/20 10/60/20
f 32/116/20 33/117/20 10/60/20
f 33/117/20 34/118/20 10/60/20
f 34/118/20 35/119/20 10/60/20
f 35/119/20 36/120/20 10/60/20
f 36/120/20 29/121/20 10/60/20
f 29/121/20 42/122/20 43/123/20
f 42/122/20 44/124/20 46/125/20
f 44/124/20 45/126/20 46/125/20
f 46/125/20 43/123/20 42/122/20
f 43/123/20 10/60/20 29/121/20
f 10/60/20 12/127/20 11/58/20
f 12/127/20 13/128/20 18/129/20
f 13/128/20 14/130/20 17/131/20
f 18/129/20 13/128/20 17/131/20
f 14/130/20 15/132/20 16/133/20
f 16/133/20 17/131/20 14/130/20
f 18/129/20 11/58/20 12/127/20
f 43/61/21 46/134/21 39/62/21
f 46/64/22 45/135/22 40/65/22
f 45/67/23 44/136/23 41/68/23
f 44/70/24 42/137/24 38/71/24
f 42/73/25 29/138/25 19/74/25
