# Blender v2.79 (sub 0) OBJ File: 'racetrack.blend'
# www.blender.org
v -7.434825 0.211183 -4.189117
v -7.332939 0.211183 -4.189117
v -7.434825 0.190866 -4.187116
v -7.332939 0.190866 -4.187116
v -7.434825 0.171329 -4.181190
v -7.332939 0.171329 -4.181190
v -7.434825 0.153325 -4.171566
v -7.332939 0.153325 -4.171566
v -7.434825 0.137543 -4.158614
v -7.332939 0.137543 -4.158614
v -7.434825 0.124592 -4.142833
v -7.332939 0.124592 -4.142833
v -7.434825 0.114968 -4.124827
v -7.332939 0.114968 -4.124827
v -7.434825 0.109041 -4.105291
v -7.332939 0.109041 -4.105291
v -7.434825 0.107040 -4.084974
v -7.332939 0.107040 -4.084974
v -7.434825 0.109041 -4.064657
v -7.332939 0.109041 -4.064657
v -7.434825 0.114968 -4.045120
v -7.332939 0.114968 -4.045120
v -7.434825 0.124592 -4.027115
v -7.332939 0.124592 -4.027115
v -7.434825 0.137543 -4.011333
v -7.332939 0.137543 -4.011333
v -7.434825 0.153325 -3.998382
v -7.332939 0.153325 -3.998382
v -7.434825 0.171330 -3.988758
v -7.332939 0.171330 -3.988758
v -7.434825 0.190866 -3.982832
v -7.332939 0.190866 -3.982832
v -7.434825 0.211183 -3.980831
v -7.332939 0.211183 -3.980831
v -7.434825 0.231501 -3.982832
v -7.332939 0.231501 -3.982832
v -7.434825 0.251037 -3.988758
v -7.332939 0.251037 -3.988758
v -7.434825 0.269042 -3.998382
v -7.332939 0.269042 -3.998382
v -7.434825 0.284824 -4.011333
v -7.332939 0.284824 -4.011333
v -7.434825 0.297775 -4.027115
v -7.332939 0.297775 -4.027115
v -7.434825 0.307399 -4.045120
v -7.332939 0.307399 -4.045120
v -7.434825 0.313325 -4.064657
v -7.332939 0.313325 -4.064657
v -7.434825 0.315326 -4.084974
v -7.332939 0.315326 -4.084974
v -7.434825 0.313325 -4.105291
v -7.332939 0.313325 -4.105291
v -7.434825 0.307399 -4.124828
v -7.332939 0.307399 -4.124828
v -7.434825 0.297775 -4.142833
v -7.332939 0.297775 -4.142833
v -7.434825 0.284823 -4.158614
v -7.332939 0.284823 -4.158614
v -7.434825 0.269042 -4.171566
v -7.332939 0.269042 -4.171566
v -7.434825 0.251037 -4.181190
v -7.332939 0.251037 -4.181190
v -7.434825 0.231500 -4.187116
v -7.332939 0.231500 -4.187116
v -8.104978 0.211183 -4.189116
v -8.003092 0.211183 -4.189116
v -8.104978 0.190866 -4.187115
v -8.003092 0.190866 -4.187115
v -8.104978 0.171330 -4.181189
v -8.003092 0.171330 -4.181189
v -8.104978 0.153325 -4.171565
v -8.003092 0.153325 -4.171565
v -8.104978 0.137543 -4.158614
v -8.003092 0.137543 -4.158614
v -8.104978 0.124592 -4.142832
v -8.003092 0.124592 -4.142832
v -8.104978 0.114968 -4.124827
v -8.003092 0.114968 -4.124827
v -8.104978 0.109041 -4.105291
v -8.003092 0.109041 -4.105291
v -8.104978 0.107040 -4.084973
v -8.003092 0.107040 -4.084973
v -8.104978 0.109041 -4.064656
v -8.003092 0.109041 -4.064656
v -8.104978 0.114968 -4.045120
v -8.003092 0.114968 -4.045120
v -8.104978 0.124592 -4.027115
v -8.003092 0.124592 -4.027115
v -8.104978 0.137543 -4.011333
v -8.003092 0.137543 -4.011333
v -8.104978 0.153325 -3.998382
v -8.003092 0.153325 -3.998382
v -8.104978 0.171330 -3.988758
v -8.003092 0.171330 -3.988758
v -8.104978 0.190866 -3.982831
v -8.003092 0.190866 -3.982831
v -8.104978 0.211183 -3.980830
v -8.003092 0.211183 -3.980830
v -8.104978 0.231501 -3.982831
v -8.003092 0.231501 -3.982831
v -8.104978 0.251037 -3.988758
v -8.003092 0.251037 -3.988758
v -8.104978 0.269042 -3.998382
v -8.003092 0.269042 -3.998382
v -8.104978 0.284824 -4.011333
v -8.003092 0.284824 -4.011333
v -8.104978 0.297775 -4.027115
v -8.003092 0.297775 -4.027115
v -8.104978 0.307399 -4.045120
v -8.003092 0.307399 -4.045120
v -8.104978 0.313325 -4.064656
v -8.003092 0.313325 -4.064656
v -8.104978 0.315326 -4.084973
v -8.003092 0.315326 -4.084973
v -8.104978 0.313325 -4.105291
v -8.003092 0.313325 -4.105291
v -8.104978 0.307399 -4.124827
v -8.003092 0.307399 -4.124827
v -8.104978 0.297775 -4.142832
v -8.003092 0.297775 -4.142832
v -8.104978 0.284823 -4.158614
v -8.003092 0.284823 -4.158614
v -8.104978 0.269042 -4.171565
v -8.003092 0.269042 -4.171565
v -8.104978 0.251037 -4.181189
v -8.003092 0.251037 -4.181189
v -8.104978 0.231500 -4.187115
v -8.003092 0.231500 -4.187115
vn 0.0000 -0.0980 -0.9952
vn 0.0000 -0.2903 -0.9569
vn 0.0000 -0.4714 -0.8819
vn 0.0000 -0.6344 -0.7730
vn 0.0000 -0.7730 -0.6344
vn 0.0000 -0.8819 -0.4714
vn 0.0000 -0.9569 -0.2903
vn 0.0000 -0.9952 -0.0980
vn 0.0000 -0.9952 0.0980
vn 0.0000 -0.9569 0.2903
vn 0.0000 -0.8819 0.4714
vn 0.0000 -0.7730 0.6344
vn 0.0000 -0.6344 0.7730
vn 0.0000 -0.4714 0.8819
vn 0.0000 -0.2903 0.9569
vn 0.0000 -0.0980 0.9952
vn 0.0000 0.0980 0.9952
vn 0.0000 0.2903 0.9569
vn 0.0000 0.4714 0.8819
vn 0.0000 0.6344 0.7730
vn 0.0000 0.7730 0.6344
vn 0.0000 0.8819 0.4714
vn 0.0000 0.9569 0.2903
vn 0.0000 0.9952 0.0980
vn 0.0000 0.9952 -0.0980
vn 0.0000 0.9569 -0.2903
vn -0.0000 0.8819 -0.4714
vn 0.0000 0.7730 -0.6344
vn 0.0000 0.6344 -0.7730
vn 0.0000 0.4714 -0.8819
vn 1.0000 0.0000 0.0000
vn 0.0000 0.2903 -0.9569
vn 0.0000 0.0980 -0.9952
vn -1.0000 0.0000 0.0000
vn 1.0000 0.0001 0.0000
vn 1.0000 -0.0001 0.0000
vn 1.0000 0.0004 0.0000
vn 1.0000 -0.0002 0.0000
vn 1.0000 0.0003 0.0000
vn 1.0000 0.0002 0.0000
vn -1.0000 0.0002 0.0000
vn -1.0000 0.0001 0.0000
vn -1.0000 -0.0004 0.0000
vn -1.0000 -0.0001 0.0000
vn 1.0000 -0.0003 0.0000
vn -1.0000 -0.0002 0.0000
vn -1.0000 -0.0003 0.0000
s off
f 2//1 3//1 1//1
f 4//2 5//2 3//2
f 6//3 7//3 5//3
f 8//4 9//4 7//4
f 10//5 11//5 9//5
f 12//6 13//6 11//6
f 14//7 15//7 13//7
f 16//8 17//8 15//8
f 18//9 19//9 17//9
f 20//10 21//10 19//10
f 22//11 23//11 21//11
f 24//12 25//12 23//12
f 26//13 27//13 25//13
f 28//14 29//14 27//14
f 30//15 31//15 29//15
f 32//16 33//16 31//16
f 34//17 35//17 33//17
f 36//18 37//18 35//18
f 38//19 39//19 37//19
f 40//20 41//20 39//20
f 42//21 43//21 41//21
f 44//22 45//22 43//22
f 46//23 47//23 45//23
f 48//24 49//24 47//24
f 50//25 51//25 49//25
f 52//26 53//26 51//26
f 54//27 55//27 53//27
f 56//28 57//28 55//28
f 58//29 59//29 57//29
f 60//30 61//30 59//30
f 54//31 38//31 22//31
f 62//32 63//32 61//32
f 64//33 1//33 63//33
f 15//34 31//34 47//34
f 66//1 67//1 65//1
f 68//2 69//2 67//2
f 70//3 71//3 69//3
f 72//4 73//4 71//4
f 74//5 75//5 73//5
f 76//6 77//6 75//6
f 78//7 79//7 77//7
f 80//8 81//8 79//8
f 82//9 83//9 81//9
f 84//10 85//10 83//10
f 86//11 87//11 85//11
f 88//12 89//12 87//12
f 90//13 91//13 89//13
f 92//14 93//14 91//14
f 94//15 95//15 93//15
f 96//16 97//16 95//16
f 98//17 99//17 97//17
f 100//18 101//18 99//18
f 102//19 103//19 101//19
f 104//20 105//20 103//20
f 106//21 107//21 105//21
f 108//22 109//22 107//22
f 110//23 111//23 109//23
f 112//24 113//24 111//24
f 114//25 115//25 113//25
f 116//26 117//26 115//26
f 118//27 119//27 117//27
f 120//28 121//28 119//28
f 122//29 123//29 121//29
f 124//30 125//30 123//30
f 118//31 102//31 86//31
f 126//32 127//32 125//32
f 128//33 65//33 127//33
f 111//34 119//34 127//34
f 2//1 4//1 3//1
f 4//2 6//2 5//2
f 6//3 8//3 7//3
f 8//4 10//4 9//4
f 10//5 12//5 11//5
f 12//6 14//6 13//6
f 14//7 16//7 15//7
f 16//8 18//8 17//8
f 18//9 20//9 19//9
f 20//10 22//10 21//10
f 22//11 24//11 23//11
f 24//12 26//12 25//12
f 26//13 28//13 27//13
f 28//14 30//14 29//14
f 30//15 32//15 31//15
f 32//16 34//16 33//16
f 34//17 36//17 35//17
f 36//18 38//18 37//18
f 38//19 40//19 39//19
f 40//20 42//20 41//20
f 42//21 44//21 43//21
f 44//22 46//22 45//22
f 46//23 48//23 47//23
f 48//24 50//24 49//24
f 50//25 52//25 51//25
f 52//26 54//26 53//26
f 54//27 56//27 55//27
f 56//28 58//28 57//28
f 58//29 60//29 59//29
f 60//30 62//30 61//30
f 6//35 4//35 2//35
f 2//31 64//31 6//31
f 64//31 62//31 6//31
f 62//31 60//31 58//31
f 58//31 56//31 54//31
f 54//31 52//31 50//31
f 50//31 48//31 54//31
f 48//31 46//31 54//31
f 46//31 44//31 38//31
f 44//36 42//36 38//36
f 42//31 40//31 38//31
f 38//31 36//31 34//31
f 34//31 32//31 30//31
f 30//31 28//31 26//31
f 26//37 24//37 22//37
f 22//37 20//37 18//37
f 18//38 16//38 22//38
f 16//39 14//39 22//39
f 14//40 12//40 10//40
f 10//31 8//31 6//31
f 62//31 58//31 6//31
f 58//31 54//31 6//31
f 38//31 34//31 22//31
f 34//31 30//31 22//31
f 30//31 26//31 22//31
f 14//36 10//36 22//36
f 10//31 6//31 22//31
f 54//31 46//31 38//31
f 6//31 54//31 22//31
f 62//32 64//32 63//32
f 64//33 2//33 1//33
f 63//34 1//34 3//34
f 3//41 5//41 7//41
f 7//34 9//34 11//34
f 11//34 13//34 7//34
f 13//42 15//42 7//42
f 15//34 17//34 19//34
f 19//34 21//34 15//34
f 21//34 23//34 15//34
f 23//34 25//34 31//34
f 25//42 27//42 31//42
f 27//34 29//34 31//34
f 31//34 33//34 35//34
f 35//34 37//34 39//34
f 39//34 41//34 43//34
f 43//43 45//43 47//43
f 47//34 49//34 51//34
f 51//43 53//43 55//43
f 55//34 57//34 63//34
f 57//44 59//44 63//44
f 59//44 61//44 63//44
f 63//34 3//34 7//34
f 31//34 35//34 47//34
f 35//34 39//34 47//34
f 39//34 43//34 47//34
f 47//34 51//34 63//34
f 51//34 55//34 63//34
f 63//34 7//34 15//34
f 15//34 23//34 31//34
f 63//34 15//34 47//34
f 66//1 68//1 67//1
f 68//2 70//2 69//2
f 70//3 72//3 71//3
f 72//4 74//4 73//4
f 74//5 76//5 75//5
f 76//6 78//6 77//6
f 78//7 80//7 79//7
f 80//8 82//8 81//8
f 82//9 84//9 83//9
f 84//10 86//10 85//10
f 86//11 88//11 87//11
f 88//12 90//12 89//12
f 90//13 92//13 91//13
f 92//14 94//14 93//14
f 94//15 96//15 95//15
f 96//16 98//16 97//16
f 98//17 100//17 99//17
f 100//18 102//18 101//18
f 102//19 104//19 103//19
f 104//20 106//20 105//20
f 106//21 108//21 107//21
f 108//22 110//22 109//22
f 110//23 112//23 111//23
f 112//24 114//24 113//24
f 114//25 116//25 115//25
f 116//26 118//26 117//26
f 118//27 120//27 119//27
f 120//28 122//28 121//28
f 122//29 124//29 123//29
f 124//30 126//30 125//30
f 70//35 68//35 66//35
f 66//36 128//36 126//36
f 126//40 124//40 122//40
f 122//31 120//31 118//31
f 118//31 116//31 114//31
f 114//40 112//40 118//40
f 112//45 110//45 118//45
f 110//31 108//31 106//31
f 106//31 104//31 110//31
f 104//35 102//35 110//35
f 102//31 100//31 98//31
f 98//31 96//31 102//31
f 96//31 94//31 102//31
f 94//36 92//36 86//36
f 92//31 90//31 86//31
f 90//31 88//31 86//31
f 86//31 84//31 82//31
f 82//31 80//31 78//31
f 78//31 76//31 74//31
f 74//38 72//38 70//38
f 70//31 66//31 118//31
f 66//31 126//31 118//31
f 126//31 122//31 118//31
f 86//31 82//31 78//31
f 78//36 74//36 86//36
f 74//31 70//31 86//31
f 118//31 110//31 102//31
f 102//31 94//31 86//31
f 70//31 118//31 86//31
f 126//32 128//32 127//32
f 128//33 66//33 65//33
f 127//34 65//34 67//34
f 67//46 69//46 71//46
f 71//42 73//42 79//42
f 73//34 75//34 79//34
f 75//34 77//34 79//34
f 79//34 81//34 83//34
f 83//46 85//46 79//46
f 85//34 87//34 79//34
f 87//44 89//44 95//44
f 89//42 91//42 95//42
f 91//47 93//47 95//47
f 95//34 97//34 99//34
f 99//34 101//34 95//34
f 101//34 103//34 95//34
f 103//34 105//34 107//34
f 107//34 109//34 111//34
f 111//34 113//34 115//34
f 115//41 117//41 111//41
f 117//34 119//34 111//34
f 119//34 121//34 127//34
f 121//34 123//34 127//34
f 123//42 125//42 127//42
f 127//34 67//34 71//34
f 103//42 107//42 111//42
f 127//34 71//34 79//34
f 79//34 87//34 127//34
f 87//34 95//34 127//34
f 95//34 103//34 127//34
f 103//34 111//34 127//34
