# Blender v2.79 (sub 0) OBJ File: ''
# www.blender.org
mtllib skybox.mtl
o Cube
v 708.503235 -708.503235 -708.503174
v 708.503235 -708.503235 708.503235
v -708.503296 -708.503235 708.503113
v -708.502991 -708.503235 -708.503479
v 708.503601 708.503235 -708.502869
v 708.502747 708.503235 708.503662
v -708.503479 708.503235 708.502991
v -708.503174 708.503235 -708.503235
vt 0.000000 0.000000
vt 0.000000 1.000000
vt 1.000000 1.000000
vt 1.000000 0.000000
vt 0.000000 1.000000
vt 1.000000 1.000000
vt 1.000000 0.000000
vt 0.000000 0.000000
vt 0.000000 1.000000
vt 1.000000 1.000000
vt 1.000000 0.000000
vt 0.000000 0.000000
vt 1.000000 1.000000
vt 1.000000 0.000000
vt 0.000000 0.000000
vt 0.000000 1.000000
vt 1.000000 1.000000
vt 1.000000 0.000000
vn 0.0000 1.0000 0.0000
vn -1.0000 0.0000 -0.0000
vn 0.0000 0.0000 -1.0000
vn 1.0000 0.0000 0.0000
vn -0.0000 -0.0000 1.0000
usemtl Material
s off
f 1/1/1 4/2/1 3/3/1 2/4/1
f 1/1/2 2/5/2 6/6/2 5/7/2
f 2/8/3 3/9/3 7/10/3 6/11/3
f 3/12/4 4/2/4 8/13/4 7/14/4
f 5/15/5 8/16/5 4/17/5 1/18/5
